<svg xmlns="http://www.w3.org/2000/svg" width="1920" height="1080"><path d="M1224,433L1442,632L1565,390Z" fill="#55ad7e" stroke="#55ad7e" stroke-width="1.51"/><path d="M1565,390L1418,60L1224,433Z" fill="#7bbc95" stroke="#7bbc95" stroke-width="1.51"/><path d="M1224,433L1166,814L1442,632Z" fill="#44ac76" stroke="#44ac76" stroke-width="1.51"/><path d="M1442,632L1826,357L1565,390Z" fill="#51a175" stroke="#51a175" stroke-width="1.51"/><path d="M1565,390L1826,357L1418,60Z" fill="#76b089" stroke="#76b089" stroke-width="1.51"/><path d="M1418,60L1129,32L1224,433Z" fill="#91ccad" stroke="#91ccad" stroke-width="1.51"/><path d="M672,886L1051,1020L1166,814Z" fill="#409b6a" stroke="#409b6a" stroke-width="1.51"/><path d="M1166,814L1461,1070L1442,632Z" fill="#268e4b" stroke="#268e4b" stroke-width="1.51"/><path d="M1442,632L2018,635L1826,357Z" fill="#3a8f63" stroke="#3a8f63" stroke-width="1.51"/><path d="M1823,1164L2018,635L1442,632Z" fill="#137535" stroke="#137535" stroke-width="1.51"/><path d="M672,886L1166,814L1224,433Z" fill="#4cb180" stroke="#4cb180" stroke-width="1.51"/><path d="M1166,814L1051,1020L1461,1070Z" fill="#24874c" stroke="#24874c" stroke-width="1.51"/><path d="M2284,26L1975,21L2380,304Z" fill="#759983" stroke="#759983" stroke-width="1.51"/><path d="M1826,357L1975,21L1418,60Z" fill="#7caa8a" stroke="#7caa8a" stroke-width="1.51"/><path d="M1050,-622L851,-195L1129,32Z" fill="#aeddca" stroke="#aeddca" stroke-width="1.51"/><path d="M1129,32L605,314L1224,433Z" fill="#9ad7c2" stroke="#9ad7c2" stroke-width="1.51"/><path d="M1574,1666L1823,1164L1461,1070Z" fill="#045b26" stroke="#045b26" stroke-width="1.51"/><path d="M1461,1070L1823,1164L1442,632Z" fill="#097231" stroke="#097231" stroke-width="1.51"/><path d="M605,314L672,886L1224,433Z" fill="#74c8ad" stroke="#74c8ad" stroke-width="1.51"/><path d="M1542,-455L1129,32L1418,60Z" fill="#98c9a6" stroke="#98c9a6" stroke-width="1.51"/><path d="M1129,32L851,-195L605,314Z" fill="#b7e2d7" stroke="#b7e2d7" stroke-width="1.51"/><path d="M1975,21L1542,-455L1418,60Z" fill="#8ab692" stroke="#8ab692" stroke-width="1.51"/><path d="M672,886L627,1049L1051,1020Z" fill="#4f9870" stroke="#4f9870" stroke-width="1.51"/><path d="M1051,1020L1305,1510L1461,1070Z" fill="#1d723f" stroke="#1d723f" stroke-width="1.51"/><path d="M269,637L627,1049L672,886Z" fill="#75b38c" stroke="#75b38c" stroke-width="1.51"/><path d="M1975,21L1848,-508L1542,-455Z" fill="#83a98a" stroke="#83a98a" stroke-width="1.51"/><path d="M2380,304L1975,21L1826,357Z" fill="#6c967c" stroke="#6c967c" stroke-width="1.51"/><path d="M2380,304L1826,357L2018,635Z" fill="#4a8969" stroke="#4a8969" stroke-width="1.51"/><path d="M1050,-622L792,-321L851,-195Z" fill="#b7e2d4" stroke="#b7e2d4" stroke-width="1.51"/><path d="M851,-195L244,-19L605,314Z" fill="#d7f0eb" stroke="#d7f0eb" stroke-width="1.51"/><path d="M2493,650L2380,304L2018,635Z" fill="#37815d" stroke="#37815d" stroke-width="1.51"/><path d="M740,1587L1305,1510L1051,1020Z" fill="#307d55" stroke="#307d55" stroke-width="1.51"/><path d="M2344,-439L1848,-508L1975,21Z" fill="#7d9c84" stroke="#7d9c84" stroke-width="1.51"/><path d="M2515,1121L2493,650L2018,635Z" fill="#126731" stroke="#126731" stroke-width="1.51"/><path d="M1542,-455L1050,-622L1129,32Z" fill="#9fd2b3" stroke="#9fd2b3" stroke-width="1.51"/><path d="M1848,-508L1050,-622L1542,-455Z" fill="#92c19b" stroke="#92c19b" stroke-width="1.51"/><path d="M243,309L269,637L605,314Z" fill="#b6e3d9" stroke="#b6e3d9" stroke-width="1.51"/><path d="M605,314L269,637L672,886Z" fill="#8fd0b6" stroke="#8fd0b6" stroke-width="1.51"/><path d="M244,-19L243,309L605,314Z" fill="#d8f0ef" stroke="#d8f0ef" stroke-width="1.51"/><path d="M244,-19L851,-195L792,-321Z" fill="#d2eee8" stroke="#d2eee8" stroke-width="1.51"/><path d="M1823,1164L2515,1121L2018,635Z" fill="#005421" stroke="#005421" stroke-width="1.51"/><path d="M1574,1666L1967,1511L1823,1164Z" fill="#004f1f" stroke="#004f1f" stroke-width="1.51"/><path d="M1305,1510L1574,1666L1461,1070Z" fill="#10662f" stroke="#10662f" stroke-width="1.51"/><path d="M472,-502L244,-19L792,-321Z" fill="#dff3f0" stroke="#dff3f0" stroke-width="1.51"/><path d="M269,637L389,1227L627,1049Z" fill="#73a885" stroke="#73a885" stroke-width="1.51"/><path d="M627,1049L740,1587L1051,1020Z" fill="#468767" stroke="#468767" stroke-width="1.51"/><path d="M1305,1510L740,1587L1574,1666Z" fill="#207646" stroke="#207646" stroke-width="1.51"/><path d="M1967,1511L2515,1121L1823,1164Z" fill="#00441b" stroke="#00441b" stroke-width="1.51"/><path d="M1848,-508L2344,-439L1050,-622Z" fill="#85ad8c" stroke="#85ad8c" stroke-width="1.51"/><path d="M2284,26L2344,-439L1975,21Z" fill="#7d9c84" stroke="#7d9c84" stroke-width="1.51"/><path d="M2380,304L2344,-439L2284,26Z" fill="#7d9c84" stroke="#7d9c84" stroke-width="1.51"/><path d="M2493,650L2344,-439L2380,304Z" fill="#719880" stroke="#719880" stroke-width="1.51"/><path d="M389,1227L740,1587L627,1049Z" fill="#5e9074" stroke="#5e9074" stroke-width="1.51"/><path d="M1050,-622L472,-502L792,-321Z" fill="#c4e8df" stroke="#c4e8df" stroke-width="1.51"/><path d="M60,-218L55,278L244,-19Z" fill="#f2fafc" stroke="#f2fafc" stroke-width="1.51"/><path d="M244,-19L55,278L243,309Z" fill="#e2f4f5" stroke="#e2f4f5" stroke-width="1.51"/><path d="M243,309L55,278L269,637Z" fill="#c1e7e1" stroke="#c1e7e1" stroke-width="1.51"/><path d="M269,637L100,1191L389,1227Z" fill="#79a387" stroke="#79a387" stroke-width="1.51"/><path d="M1967,1511L2359,1588L2515,1121Z" fill="#00441b" stroke="#00441b" stroke-width="1.51"/><path d="M1574,1666L2359,1588L1967,1511Z" fill="#00441b" stroke="#00441b" stroke-width="1.51"/><path d="M55,278L-76,616L269,637Z" fill="#b3e1d3" stroke="#b3e1d3" stroke-width="1.51"/><path d="M-76,616L100,1191L269,637Z" fill="#90c19c" stroke="#90c19c" stroke-width="1.51"/><path d="M389,1227L400,1650L740,1587Z" fill="#659378" stroke="#659378" stroke-width="1.51"/><path d="M55,278L-405,223L-76,616Z" fill="#cfede6" stroke="#cfede6" stroke-width="1.51"/><path d="M472,-502L60,-218L244,-19Z" fill="#edf8fa" stroke="#edf8fa" stroke-width="1.51"/><path d="M100,1191L400,1650L389,1227Z" fill="#729880" stroke="#729880" stroke-width="1.51"/><path d="M740,1587L400,1650L1574,1666Z" fill="#3c835f" stroke="#3c835f" stroke-width="1.51"/><path d="M472,-502L-76,-452L60,-218Z" fill="#f2fafb" stroke="#f2fafb" stroke-width="1.51"/><path d="M60,-218L-405,223L55,278Z" fill="#f1fafb" stroke="#f1fafb" stroke-width="1.51"/><path d="M-460,-566L-76,-452L472,-502Z" fill="#f7fcfd" stroke="#f7fcfd" stroke-width="1.51"/><path d="M100,1191L-57,1533L400,1650Z" fill="#789a83" stroke="#789a83" stroke-width="1.51"/><path d="M-427,1278L-57,1533L100,1191Z" fill="#7d9c84" stroke="#7d9c84" stroke-width="1.51"/><path d="M-554,34L-405,223L60,-218Z" fill="#f6fbfd" stroke="#f6fbfd" stroke-width="1.51"/><path d="M-76,616L-427,1278L100,1191Z" fill="#81a588" stroke="#81a588" stroke-width="1.51"/><path d="M-76,-452L-554,34L60,-218Z" fill="#f7fcfd" stroke="#f7fcfd" stroke-width="1.51"/><path d="M-602,718L-427,1278L-76,616Z" fill="#8ebc97" stroke="#8ebc97" stroke-width="1.51"/><path d="M-602,718L-76,616L-405,223Z" fill="#b5e1d3" stroke="#b5e1d3" stroke-width="1.51"/><path d="M-554,34L-602,718L-405,223Z" fill="#d8f0eb" stroke="#d8f0eb" stroke-width="1.51"/><path d="M1050,-622L-460,-566L472,-502Z" fill="#e8f7f6" stroke="#e8f7f6" stroke-width="1.51"/><path d="M-76,-452L-460,-566L-554,34Z" fill="#f7fcfd" stroke="#f7fcfd" stroke-width="1.51"/><path d="M-602,718L-547,1557L-427,1278Z" fill="#7d9c84" stroke="#7d9c84" stroke-width="1.51"/><path d="M-427,1278L-547,1557L-57,1533Z" fill="#7d9c84" stroke="#7d9c84" stroke-width="1.51"/><path d="M-57,1533L-547,1557L400,1650Z" fill="#7d9c84" stroke="#7d9c84" stroke-width="1.51"/></svg>